:SAMPLES-PER-SECOND 30
:FULLY-SPECIFIED
:DEGREES
319
root  -2.13697 18.3041 41.5988 61.5548 -5.92642 11.8477
RightUpLeg  -28.938 -12.4542 -1.70023
RightLeg  72.8033 14.0178 -8.33924
RightFoot  -21.2433 0.164785 1.33161
RightToes  5.82077e-011 -3.18055e-015 -2.98177e-016
Spine  18.9349 -6.6548 -1.52674
Spine1  4.96342 -6.94806 -3.76582
HEad  -20.336 8.54478 12.6562
LeftShoulder1  -3.88251e-019 9.70628e-020 -3.87848e-018
LeftArm  -5.35764 6.88157 -61.5333
LeftForeArm  18.125 -14.5112 -6.05802
LeftHand  -11.972 -11.7742 72.136
RightShoulder  2.86173 7.86042 13.6254
RightArm  2.17321 20.5291 77.0395
RightForeArm  8.73614 12.8005 -9.66106
RightHand  -11.2492 10.2392 -72.0661
LeftUpLeg  -66.4335 -7.78348 -20.8391
LeftLeg  108.791 -22.5498 21.61
LeftFoot  -8.12637 0.46138 -11.0898
LeftToes  9.37148e-011 4.50685e-012 -4.11107e-011
320
root  -2.05162 18.1925 42.392 63.6118 -4.94653 14.3492
RightUpLeg  -28.1538 -15.3735 -2.69405
RightLeg  70.2997 14.5667 -5.15597
RightFoot  -21.0695 0.312378 3.64468
RightToes  5.82077e-011 -3.18055e-015 -2.98177e-016
Spine  14.9524 -6.66474 -2.25531
Spine1  6.45324 -8.10623 1.3236
HEad  -19.7986 8.56248 12.7343
LeftShoulder1  -3.88251e-019 9.70628e-020 -3.87848e-018
LeftArm  -1.44798 11.2677 -63.531
LeftForeArm  8.56282 -20.5145 -2.92991
LeftHand  -12.1918 -12.2897 71.468
RightShoulder  3.03996 7.87498 14.7807
RightArm  2.77645 19.2823 75.5072
RightForeArm  11.1783 13.5623 -9.37028
RightHand  -11.5526 10.5036 -72.6124
LeftUpLeg  -65.6705 -10.326 -20.9989
LeftLeg  106.47 -21.5244 21.5238
LeftFoot  -7.91457 0.564861 -12.9168
LeftToes  9.37148e-011 4.50685e-012 -4.11107e-011
321
root  -1.89024 18.1902 43.1165 65.0385 -4.3704 15.2014
RightUpLeg  -28.3065 -16.4536 -3.48334
RightLeg  70.0342 15.7098 -1.25268
RightFoot  -17.8581 0.292578 5.84448
RightToes  5.82077e-011 -3.18055e-015 -2.98177e-016
Spine  12.3929 -6.36842 -1.68848
Spine1  7.2736 -8.39456 4.49862
HEad  -20.3953 8.42909 12.3123
LeftShoulder1  -3.88251e-019 9.70628e-020 -3.87848e-018
LeftArm  2.87657 12.9831 -65.0207
LeftForeArm  1.83566 -24.7787 1.92582
LeftHand  -12.3754 -12.5978 71.3195
RightShoulder  3.32436 8.1187 16.2469
RightArm  3.0606 18.5204 73.5863
RightForeArm  13.2759 14.1946 -9.34121
RightHand  -11.7519 10.6152 -73.1718
LeftUpLeg  -64.8545 -11.8852 -20.4108
LeftLeg  104.947 -20.4339 20.4368
LeftFoot  -8.06492 0.544543 -12.8301
LeftToes  9.37148e-011 4.50685e-012 -4.11107e-011
322
root  -1.60748 18.3138 43.7278 65.4492 -4.51444 14.1366
RightUpLeg  -29.6414 -16.4497 -4.53022
RightLeg  72.8926 16.8405 2.89964
RightFoot  -13.1586 0.0370788 6.66946
RightToes  5.82077e-011 -3.18055e-015 -2.98177e-016
Spine  11.7607 -5.82436 0.666363
Spine1  7.02629 -7.6199 4.85407
HEad  -21.1205 8.54027 11.5627
LeftShoulder1  -3.88251e-019 9.70628e-020 -3.87848e-018
LeftArm  3.04373 12.0269 -64.9785
LeftForeArm  2.42619 -27.789 5.39636
LeftHand  -12.3258 -12.5964 71.1049
RightShoulder  3.53825 8.4428 17.0818
RightArm  3.16859 18.0049 72.1388
RightForeArm  15.0896 13.9435 -9.15927
RightHand  -11.9927 10.7441 -73.854
LeftUpLeg  -63.5237 -11.9622 -19.8282
LeftLeg  103.541 -19.5055 19.4183
LeftFoot  -8.26664 0.473681 -11.7336
LeftToes  9.37148e-011 4.50685e-012 -4.11107e-011
323
root  -1.25389 18.5299 44.2336 65.0099 -5.10229 11.2489
RightUpLeg  -31.9579 -15.8998 -5.40539
RightLeg  78.2738 17.1326 6.17261
RightFoot  -11.0161 -0.105823 7.18701
RightToes  5.82077e-011 -3.18055e-015 -2.98177e-016
Spine  13.2477 -5.02041 4.33712
Spine1  5.41385 -5.97365 3.4645
HEad  -21.4998 8.80076 10.5244
LeftShoulder1  -3.88251e-019 9.70628e-020 -3.87848e-018
LeftArm  -0.47905 9.32593 -63.6816
LeftForeArm  4.07114 -31.1796 7.00671
LeftHand  -12.0742 -12.6305 69.8769
RightShoulder  3.64668 8.78817 17.1911
RightArm  3.70969 17.4802 70.9678
RightForeArm  16.3847 13.3355 -8.53592
RightHand  -12.2474 10.9324 -74.3828
LeftUpLeg  -61.7783 -10.2531 -19.0602
LeftLeg  102.247 -18.749 18.5638
LeftFoot  -8.02626 0.497585 -11.6829
LeftToes  9.37148e-011 4.50685e-012 -4.11107e-011
324
root  -0.93985 18.799 44.6761 63.8754 -5.55172 7.04979
RightUpLeg  -34.7043 -14.7283 -5.34779
RightLeg  84.8041 16.4999 7.54065
RightFoot  -12.3362 -0.0239539 7.78344
RightToes  5.82077e-011 -3.18055e-015 -2.98177e-016
Spine  16.7343 -4.10447 8.10804
Spine1  2.94902 -4.02388 2.31468
HEad  -22.0377 9.21084 9.19519
LeftShoulder1  -3.88251e-019 9.70628e-020 -3.87848e-018
LeftArm  -4.83889 5.01078 -61.6568
LeftForeArm  1.78149 -33.752 7.58145
LeftHand  -11.625 -12.6673 67.7301
RightShoulder  3.77245 9.19252 17.3081
RightArm  4.41882 16.8802 70.0325
RightForeArm  17.6914 13.2369 -7.94526
RightHand  -12.4541 11.1193 -74.6857
LeftUpLeg  -59.5741 -7.05372 -17.4453
LeftLeg  101.342 -18.0341 17.285
LeftFoot  -7.48637 0.584785 -12.309
LeftToes  9.37148e-011 4.50685e-012 -4.11107e-011
325
root  -0.742851 19.098 45.0876 62.0695 -5.53132 2.19085
RightUpLeg  -37.6691 -12.7967 -3.84525
RightLeg  91.6695 15.5954 6.48455
RightFoot  -14.308 0.111395 7.31022
RightToes  5.82077e-011 -3.18055e-015 -2.98177e-016
Spine  21.8154 -3.29917 11.0996
Spine1  0.255015 -2.16545 2.4179
HEad  -22.9688 9.92747 7.69918
LeftShoulder1  -3.88251e-019 9.70628e-020 -3.87848e-018
LeftArm  -8.25987 -0.961927 -58.8254
LeftForeArm  -1.28772 -33.6841 7.415
LeftHand  -10.9712 -12.3421 65.6597
RightShoulder  3.8679 9.48541 17.416
RightArm  4.43168 16.0862 70.0906
RightForeArm  19.6408 13.4076 -7.97333
RightHand  -12.6544 11.2903 -75.0052
LeftUpLeg  -56.6576 -3.01571 -14.6841
LeftLeg  100.752 -17.3282 15.5428
LeftFoot  -7.04611 0.641971 -12.4644
LeftToes  9.37148e-011 4.50685e-012 -4.11107e-011
